name Walk1.mot
datacolumns 19
datarows 27
range 2.17800000 2.20400000
endheader

                time	   L_ground_force_vx	   L_ground_force_vy	   L_ground_force_vz	   L_ground_force_px	   L_ground_force_py	   L_ground_force_pz	   R_ground_force_vx	   R_ground_force_vy	   R_ground_force_vz	   R_ground_force_px	   R_ground_force_py	   R_ground_force_pz	   L_ground_torque_x	   L_ground_torque_y	   L_ground_torque_z	   R_ground_torque_x	   R_ground_torque_y	   R_ground_torque_z	
          2.17800000	          0.00682648	          0.06765751	         -0.00445575	         -0.00007523	          0.00000000	         -0.00000854	        -59.95845480	        920.92479347	        -57.44773721	          0.63123873	          0.00000000	          0.14123154	          0.00000000	          0.00000841	          0.00000000	          0.00000000	          4.92782852	          0.00000000	
          2.17900000	          0.00518577	          0.06248197	         -0.00405729	         -0.00007275	          0.00000000	         -0.00000748	        -59.40765174	        917.99256084	        -57.22486390	          0.63148765	          0.00000000	          0.14126606	          0.00000000	          0.00001818	          0.00000000	          0.00000000	          4.86962101	          0.00000000	
          2.18000000	          0.00366496	          0.05751037	         -0.00367738	         -0.00007022	          0.00000000	         -0.00000647	        -58.86016141	        915.07627494	        -57.00811242	          0.63173294	          0.00000000	          0.14130035	          0.00000000	          0.00002706	          0.00000000	          0.00000000	          4.81199343	          0.00000000	
          2.18100000	          0.00225960	          0.05274416	         -0.00331588	         -0.00006763	          0.00000000	         -0.00000553	        -58.31594278	        912.17601504	        -56.79776944	          0.63197459	          0.00000000	          0.14133442	          0.00000000	          0.00003507	          0.00000000	          0.00000000	          4.75491923	          0.00000000	
          2.18200000	          0.00096520	          0.04818388	         -0.00297258	         -0.00006501	          0.00000000	         -0.00000465	        -57.77494318	        909.29187401	        -56.59407802	          0.63221254	          0.00000000	          0.14136827	          0.00000000	          0.00004227	          0.00000000	          0.00000000	          4.69837194	          0.00000000	
          2.18300000	         -0.00022280	          0.04382926	         -0.00264724	         -0.00006237	          0.00000000	         -0.00000382	        -57.23709861	        906.42396007	        -56.39723646	          0.63244677	          0.00000000	          0.14140188	          0.00000000	          0.00004870	          0.00000000	          0.00000000	          4.64232491	          0.00000000	
          2.18400000	         -0.00130895	          0.03967927	         -0.00233956	         -0.00005971	          0.00000000	         -0.00000305	        -56.70233428	        903.57239813	        -56.20739737	          0.63267722	          0.00000000	          0.14143526	          0.00000000	          0.00005440	          0.00000000	          0.00000000	          4.58675126	          0.00000000	
          2.18500000	         -0.00229780	          0.03573219	         -0.00204920	         -0.00005706	          0.00000000	         -0.00000234	        -56.17056524	        900.73733126	        -56.02466741	          0.63290385	          0.00000000	          0.14146837	          0.00000000	          0.00005941	          0.00000000	          0.00000000	          4.53162398	          0.00000000	
          2.18600000	         -0.00319389	          0.03198568	         -0.00177578	         -0.00005441	          0.00000000	         -0.00000167	        -55.64169720	        897.91892320	        -55.84910765	          0.63312662	          0.00000000	          0.14150122	          0.00000000	          0.00006377	          0.00000000	          0.00000000	          4.47691626	          0.00000000	
          2.18700000	         -0.00400172	          0.02843685	         -0.00151890	         -0.00005179	          0.00000000	         -0.00000106	        -55.11562752	        895.11736225	        -55.68073457	          0.63334548	          0.00000000	          0.14153378	          0.00000000	          0.00006752	          0.00000000	          0.00000000	          4.42260184	          0.00000000	
          2.18800000	         -0.00472575	          0.02508230	         -0.00127812	         -0.00004919	          0.00000000	         -0.00000049	        -54.59224625	        892.33286580	        -55.51952145	          0.63356039	          0.00000000	          0.14156602	          0.00000000	          0.00007069	          0.00000000	          0.00000000	          4.36865528	          0.00000000	
          2.18900000	         -0.00537036	          0.02191818	         -0.00105298	         -0.00004663	          0.00000000	          0.00000003	        -54.07143737	        889.56568507	        -55.36540028	          0.63377131	          0.00000000	          0.14159793	          0.00000000	          0.00007333	          0.00000000	          0.00000000	          4.31505201	          0.00000000	
          2.19000000	         -0.00593987	          0.01894027	         -0.00084301	         -0.00004410	          0.00000000	          0.00000050	        -53.55307995	        886.81610905	        -55.21826391	          0.63397818	          0.00000000	          0.14162948	          0.00000000	          0.00007546	          0.00000000	          0.00000000	          4.26176825	          0.00000000	
          2.19100000	         -0.00643851	          0.01614399	         -0.00064770	         -0.00004163	          0.00000000	          0.00000093	        -53.03704957	        884.08446723	        -55.07796845	          0.63418097	          0.00000000	          0.14166063	          0.00000000	          0.00007713	          0.00000000	          0.00000000	          4.20878081	          0.00000000	
          2.19200000	         -0.00687042	          0.01352445	         -0.00046655	         -0.00003921	          0.00000000	          0.00000133	        -52.52321953	        881.37113112	        -54.94433562	          0.63437962	          0.00000000	          0.14169136	          0.00000000	          0.00007837	          0.00000000	          0.00000000	          4.15606698	          0.00000000	
          2.19300000	         -0.00723965	          0.01107653	         -0.00029904	         -0.00003685	          0.00000000	          0.00000168	        -52.01146193	        878.67651475	        -54.81715491	          0.63457407	          0.00000000	          0.14172165	          0.00000000	          0.00007920	          0.00000000	          0.00000000	          4.10360447	          0.00000000	
          2.19400000	         -0.00755013	          0.00879488	         -0.00014465	         -0.00003455	          0.00000000	          0.00000200	        -51.50164844	        876.00107443	        -54.69618558	          0.63476427	          0.00000000	          0.14175147	          0.00000000	          0.00007967	          0.00000000	          0.00000000	          4.05137156	          0.00000000	
          2.19500000	         -0.00780568	          0.00667400	         -0.00000283	         -0.00003231	          0.00000000	          0.00000228	        -50.99365061	        873.34530797	        -54.58115856	          0.63495017	          0.00000000	          0.14178078	          0.00000000	          0.00007979	          0.00000000	          0.00000000	          3.99934726	          0.00000000	
          2.19600000	         -0.00801001	          0.00470822	          0.00012694	         -0.00003014	          0.00000000	          0.00000253	        -50.48733985	        870.70975353	        -54.47177836	          0.63513169	          0.00000000	          0.14180956	          0.00000000	          0.00007960	          0.00000000	          0.00000000	          3.94751145	          0.00000000	
          2.19700000	         -0.00816670	          0.00289179	          0.00024519	         -0.00002804	          0.00000000	          0.00000275	        -49.98258711	        868.09498837	        -54.36772525	          0.63530879	          0.00000000	          0.14183778	          0.00000000	          0.00007913	          0.00000000	          0.00000000	          3.89584488	          0.00000000	
          2.19800000	         -0.00827920	          0.00121888	          0.00035247	         -0.00002602	          0.00000000	          0.00000294	        -49.47926240	        865.50162762	        -54.26865747	          0.63548139	          0.00000000	          0.14186542	          0.00000000	          0.00007840	          0.00000000	          0.00000000	          3.84432906	          0.00000000	
          2.19900000	         -0.00835086	         -0.00031640	          0.00044929	         -0.00002407	          0.00000000	          0.00000311	        -48.97723422	        862.93032348	        -54.17421384	          0.63564943	          0.00000000	          0.14189244	          0.00000000	          0.00007743	          0.00000000	          0.00000000	          3.79294609	          0.00000000	
          2.20000000	         -0.00838486	         -0.00171996	          0.00053618	         -0.00002219	          0.00000000	          0.00000324	        -48.47636903	        860.38176426	        -54.08401651	          0.63581287	          0.00000000	          0.14191883	          0.00000000	          0.00007625	          0.00000000	          0.00000000	          3.74167834	          0.00000000	
          2.20100000	         -0.00838429	         -0.00299767	          0.00061366	         -0.00002039	          0.00000000	          0.00000336	        -47.97653091	        857.85667353	        -53.99767410	          0.63597162	          0.00000000	          0.14194456	          0.00000000	          0.00007489	          0.00000000	          0.00000000	          3.69050801	          0.00000000	
          2.20200000	         -0.00835209	         -0.00415543	          0.00068223	         -0.00001867	          0.00000000	          0.00000345	        -47.47758145	        855.35580920	        -53.91478499	          0.63612563	          0.00000000	          0.14196962	          0.00000000	          0.00007336	          0.00000000	          0.00000000	          3.63941670	          0.00000000	
          2.20300000	         -0.00829106	         -0.00519904	          0.00074240	         -0.00001702	          0.00000000	          0.00000352	        -46.97937968	        852.87996268	        -53.83494043	          0.63627484	          0.00000000	          0.14199398	          0.00000000	          0.00007168	          0.00000000	          0.00000000	          3.58838490	          0.00000000	
          2.20400000	         -0.00820389	         -0.00613427	          0.00079464	         -0.00001544	          0.00000000	          0.00000357	        -46.48178218	        850.42995820	        -53.75772727	          0.63641917	          0.00000000	          0.14201762	          0.00000000	          0.00006987	          0.00000000	          0.00000000	          3.53739169	          0.00000000	
